<?xml version="1.0" standalone="no"?><!DOCTYPE svg PUBLIC "-//W3C//DTD SVG 1.1//EN" "http://www.w3.org/Graphics/SVG/1.1/DTD/svg11.dtd"><svg t="1609828608151" class="icon" viewBox="0 0 1024 1024" version="1.1" xmlns="http://www.w3.org/2000/svg" p-id="3060" width="16" height="16" xmlns:xlink="http://www.w3.org/1999/xlink"><defs><style type="text/css"></style></defs><path d="M512 64a448 448 0 1 1 0 896A448 448 0 0 1 512 64zM379.52 327.744a32 32 0 1 0-45.312 45.248l132.48 132.48-138.88 139.072a32 32 0 0 0 45.184 45.248L512 550.72l139.008 139.072a32 32 0 0 0 45.248-45.248L557.248 505.472l132.48-132.48a32 32 0 0 0-45.184-45.248L512 460.224z" fill="#E34443" p-id="3061"></path></svg>