<?xml version="1.0" standalone="no"?><!DOCTYPE svg PUBLIC "-//W3C//DTD SVG 1.1//EN" "http://www.w3.org/Graphics/SVG/1.1/DTD/svg11.dtd"><svg t="1609828361967" class="icon" viewBox="0 0 1024 1024" version="1.1" xmlns="http://www.w3.org/2000/svg" p-id="2326" width="16" height="16" xmlns:xlink="http://www.w3.org/1999/xlink"><defs><style type="text/css"></style></defs><path d="M512 64a448 448 0 1 1 0 896A448 448 0 0 1 512 64z m296.448 265.344a32 32 0 0 0-45.248 0L468.992 623.488 310.656 465.152a32 32 0 0 0-45.312 45.248l181.056 180.992a31.872 31.872 0 0 0 19.84 9.28h5.504l5.376-0.96a31.872 31.872 0 0 0 14.528-8.32l316.8-316.8a32 32 0 0 0 0-45.248z" fill="#1890FF" p-id="2327"></path></svg>